<?xml version="1.0" encoding="UTF-8" standalone="no"?>
<svg width="30px" height="30px" viewBox="0 0 30 30" version="1.1" xmlns="http://www.w3.org/2000/svg" xmlns:xlink="http://www.w3.org/1999/xlink">
    <!-- Generator: Sketch 39.1 (31720) - http://www.bohemiancoding.com/sketch -->
    <title>Group 9</title>
    <desc>Created with Sketch.</desc>
    <defs></defs>
    <g id="Page-1" stroke="none" stroke-width="1" fill="none" fill-rule="evenodd">
        <g id="06_MyGoal7" transform="translate(-916.000000, -692.000000)">
            <g id="Group-9" transform="translate(916.000000, 692.000000)">
                <circle id="Oval-108" fill="#D8D8D8" cx="15" cy="15" r="15"></circle>
                <g id="calendar22" transform="translate(8.000000, 8.000000)" fill="#333333">
                    <g id="Layer_1">
                        <g id="Group">
                            <path d="M13.26325,1.67111111 L10.9299167,1.67111111 L10.9299167,0.744722222 C10.9299167,0.438055556 10.668875,0.189166667 10.3465833,0.189166667 C10.0245833,0.189166667 9.76325,0.438055556 9.76325,0.744722222 L9.76325,1.67111111 L4.51325,1.67111111 L4.51325,0.744722222 C4.51325,0.438055556 4.25220833,0.189166667 3.92991667,0.189166667 C3.60791667,0.189166667 3.34658333,0.438055556 3.34658333,0.744722222 L3.34658333,1.67111111 L0.819,1.67111111 C0.496708333,1.67111111 0.235666667,1.92 0.235666667,2.22666667 L0.235666667,14.2519444 C0.235666667,14.5588889 0.496708333,14.8075 0.819,14.8075 L13.26325,14.8075 C13.5855417,14.8075 13.8465833,14.5588889 13.8465833,14.2519444 L13.8465833,2.22666667 C13.8465833,1.91972222 13.5855417,1.67111111 13.26325,1.67111111 L13.26325,1.67111111 Z M12.6799167,13.6961111 L1.40233333,13.6961111 L1.40233333,5.83777778 L12.6799167,5.83777778 L12.6799167,13.6961111 L12.6799167,13.6961111 Z M12.6799167,4.72666667 L1.40233333,4.72666667 L1.40233333,2.78222222 L3.34658333,2.78222222 L3.34658333,3.33777778 C3.34658333,3.64444444 3.60791667,3.89333333 3.92991667,3.89333333 C4.25220833,3.89333333 4.51325,3.64444444 4.51325,3.33777778 L4.51325,2.78222222 L9.76325,2.78222222 L9.76325,3.33777778 C9.76325,3.64444444 10.0245833,3.89333333 10.3465833,3.89333333 C10.668875,3.89333333 10.9299167,3.64444444 10.9299167,3.33777778 L10.9299167,2.78222222 L12.6799167,2.78222222 L12.6799167,4.72666667 L12.6799167,4.72666667 Z" id="Shape"></path>
                            <polygon id="Shape" points="7.06883333 7.40166667 7.08808333 7.40166667 7.08808333 12.5502778 7.896875 12.5502778 7.896875 6.65777778 7.18316667 6.65777778 5.83129167 7.34694444 5.99345833 7.95444444"></polygon>
                        </g>
                    </g>
                </g>
            </g>
        </g>
    </g>
</svg>