<?xml version="1.0" encoding="UTF-8" standalone="no"?>
<svg width="20px" height="14px" viewBox="0 0 20 14" version="1.1" xmlns="http://www.w3.org/2000/svg" xmlns:xlink="http://www.w3.org/1999/xlink">
    <!-- Generator: Sketch 39.1 (31720) - http://www.bohemiancoding.com/sketch -->
    <title>graduation20</title>
    <desc>Created with Sketch.</desc>
    <defs></defs>
    <g id="Page-1" stroke="none" stroke-width="1" fill="none" fill-rule="evenodd">
        <g id="02_Landing2" transform="translate(-543.000000, -243.000000)" fill="#666666">
            <g id="graduation20" transform="translate(543.000000, 243.000000)">
                <g id="Layer_1">
                    <g id="Group">
                        <path d="M4.52111801,6.93726708 L4.52111801,11.5745342 C4.52111801,11.5745342 6.20186335,10.9913043 7.8447205,11.5571429 C9.48757764,12.1236025 12.2621118,13.7944099 12.2621118,13.7944099 C12.2621118,13.7944099 13.1111801,12.4136646 14.1031056,11.7757764 C15.0944099,11.1378882 15.8583851,10.6490683 15.8583851,10.6490683 L15.8583851,7.06335404 L12.8,9.76459627 L4.52111801,6.93726708 L4.52111801,6.93726708 Z" id="Shape"></path>
                        <polygon id="Shape" points="2.21925466 5.71428571 12.6944099 9.07267081 19.3602484 3.12236025 8.52049689 0 0 5.00310559 1.3515528 5.43602484 1.3515528 9.23975155 0.750931677 9.23975155 0.750931677 11.7751553 2.85279503 11.7751553 2.85279503 9.23975155 2.21925466 9.23975155"></polygon>
                    </g>
                </g>
            </g>
        </g>
    </g>
</svg>