<?xml version="1.0" encoding="UTF-8" standalone="no"?>
<svg width="449px" height="195px" viewBox="0 0 449 195" version="1.1" xmlns="http://www.w3.org/2000/svg" xmlns:xlink="http://www.w3.org/1999/xlink">
    <!-- Generator: Sketch 39.1 (31720) - http://www.bohemiancoding.com/sketch -->
    <title>Group 4</title>
    <desc>Created with Sketch.</desc>
    <defs></defs>
    <g id="Page-1" stroke="none" stroke-width="1" fill="none" fill-rule="evenodd">
        <g id="02_Landing2" transform="translate(-33.000000, -219.000000)">
            <g id="Group-4" transform="translate(33.000000, 219.000000)">
                <text id="$1.5M" font-family=".SFNSText-Regular, .SF NS Text" font-size="12" font-weight="normal" fill="#999999">
                    <tspan x="0" y="16">$1.5M</tspan>
                </text>
                <path d="M49.505119,162.378591 C49.505119,162.378591 57.9192997,164.382034 62.12639,163.883756 C66.3625517,163.382034 74.8348751,159.378591 74.8348751,159.378591 L95.6211562,168.323904 L105.229643,163.339529 C105.229643,163.339529 109.782062,172.357389 114.058272,175.366319 C116.815757,177.306607 126.330728,178.187185 126.330728,178.187185 L138.711344,178.187185 C138.711344,178.187185 145.12295,172.187185 148.49737,172.187185 C152.189534,172.187185 159.911096,178.187185 159.911096,178.187185 C159.911096,178.187185 166.844584,174.187185 170.311327,174.187185 C174.296447,174.187185 182.266687,178.187185 182.266687,178.187185 L195.5823,178.187185 L207.214212,181.175466 C207.214212,181.175466 212.433718,180.564698 215.043471,178.759314 C217.72838,176.901938 225.0982,178.187185 225.0982,178.187185 L233.128231,169.54656 L243.103203,171.882497 L256.418827,174.175466 L264.354638,170.534841 L278.454916,175.800466 L290.422063,170.241872 L299.090844,177.534841 L311.941314,173.409841 L318.52395,177.187185 L328.080752,175.089529 L332.939029,168.187185 L341.560825,173.312185 L356.915609,164.413747 L366.373743,158.288747 L377.232038,166.23406 L385.905518,161.023122 L390.448993,170.011404 L402.730941,173.093435 L410.666752,172.054372 L435.5,190.093435 L435.5,28 L29.1092869,28 L28.56097,175.721861 C32.4793681,170.322213 49.505119,162.378591 49.505119,162.378591 Z" id="Path-467" stroke="#387FF6" stroke-width="2" fill="#FFFFFF" transform="translate(232.030485, 109.046717) scale(1, -1) translate(-232.030485, -109.046717) "></path>
                <path d="M21.1146129,132.5 L429.402858,132.5" id="Line" stroke="#CCCCCC" stroke-width="0.2" stroke-linecap="square"></path>
                <path d="M21.1146129,92.8333333 L429.402858,92.8333333" id="Line" stroke="#CCCCCC" stroke-width="0.2" stroke-linecap="square"></path>
                <path d="M21.1146129,50.1666667 L429.402858,50.1666667" id="Line" stroke="#CCCCCC" stroke-width="0.2" stroke-linecap="square"></path>
                <path d="M21.1146129,10.5 L429.402858,10.5" id="Line" stroke="#CCCCCC" stroke-width="0.2" stroke-linecap="square"></path>
                <polygon id="Path-1180" fill="#FFFFFF" points="9.38515818 34.9676553 37.7295368 34.9676553 37.7295368 176.056793 428.863509 176.056793 430.863509 23.8217749 448.556987 23.8217749 442.556987 194.245599 10.1273539 194.245599"></polygon>
                <path d="M256,48.0267882 C258.209139,48.0267882 260,46.2299305 260,44.0133941 C260,41.7968576 258.209139,40 256,40 C253.790861,40 252,41.7968576 252,44.0133941 C252,46.2299305 253.790861,48.0267882 256,48.0267882 Z" id="Oval-8-copy-6" stroke="#4990E2" fill="#FFFFFF"></path>
                <path d="M39.716613,52.6349194 L49.221732,70.6505444 L53.3470383,57.2755444 L59.9813576,50.0255444 L62.0722019,58.6661694 L71.2108359,58.6661694 L74.5514882,67.6505444 L82.0691305,63.5255444 L95.3377692,76.5958569 L98.7301053,82.3341381 L104.946256,81.6114819 L111.157708,61.1622631 L119.831188,67.3732006 L126.047338,55.9552319 L132.310474,64.2482006 L138.427955,59.0802319 L145.945598,80.2208569 L159.627707,63.9825756 L165.378703,73.9708569 L172.008324,67.7208569 L181.983296,68.7208569 L195.29892,59.7599194 L215.399216,87.1544506 L232.844844,77.8185131 L242.819816,88.1544506 L256.13544,97.4474194 L264.071251,86.8067944 L278.171529,84.0724194 L290.138676,78.5138256 L298.807457,105.806794 L311.657927,101.681794 L318.240563,105.459138 L328.844085,93.3888912 L333.702361,86.4865474 L342.324157,96.6115474 C342.324157,96.6115474 344.230743,96.1274829 345.184036,95.8854506 C349.349005,94.8280037 357.678941,92.7131099 357.678941,92.7131099 L366.980067,89.5839985 L377.838362,87.529311 L386.511842,85.3183735 L391.055317,91.3066548 L403.337265,94.388686 L411.273076,83.3496235 L427.209626,82.4437629" id="Path-467" stroke="#F6A623" stroke-width="1.5" stroke-dasharray="1" transform="translate(233.463119, 77.916169) rotate(-3.000000) translate(-233.463119, -77.916169) "></path>
                <polyline id="Rectangle-1" stroke="#CCCCCC" points="38.0266714 1.8189894e-12 38.0266714 175.91562 428.572149 175.91562"></polyline>
                <text id="26-May" font-family=".SFNSText-Regular, .SF NS Text" font-size="10" font-weight="normal" fill="#999999">
                    <tspan x="408" y="192">26 May</tspan>
                </text>
                <text id="25-May" font-family=".SFNSText-Regular, .SF NS Text" font-size="10" font-weight="normal" fill="#999999">
                    <tspan x="359" y="192">25 May</tspan>
                </text>
                <text id="24-May" font-family=".SFNSText-Regular, .SF NS Text" font-size="10" font-weight="normal" fill="#999999">
                    <tspan x="304" y="192">24 May</tspan>
                </text>
                <text id="23-May" font-family=".SFNSText-Regular, .SF NS Text" font-size="10" font-weight="normal" fill="#999999">
                    <tspan x="248" y="192">23 May</tspan>
                </text>
                <text id="22-May" font-family=".SFNSText-Regular, .SF NS Text" font-size="10" font-weight="normal" fill="#999999">
                    <tspan x="191" y="192">22 May</tspan>
                </text>
                <text id="21-May" font-family=".SFNSText-Regular, .SF NS Text" font-size="10" font-weight="normal" fill="#999999">
                    <tspan x="136" y="192">21 May</tspan>
                </text>
                <text id="20-May" font-family=".SFNSText-Regular, .SF NS Text" font-size="10" font-weight="normal" fill="#999999">
                    <tspan x="81" y="192">20 May</tspan>
                </text>
                <text id="19-May" font-family=".SFNSText-Regular, .SF NS Text" font-size="10" font-weight="normal" fill="#999999">
                    <tspan x="31" y="192">19 May</tspan>
                </text>
                <text id="NASDAQ" font-family=".SFNSText-Regular, .SF NS Text" font-size="10" font-weight="normal" fill="#F6A623">
                    <tspan x="387.379395" y="90">NASDAQ</tspan>
                </text>
                <path d="M428,76.0267882 C430.209139,76.0267882 432,74.2299305 432,72.0133941 C432,69.7968576 430.209139,68 428,68 C425.790861,68 424,69.7968576 424,72.0133941 C424,74.2299305 425.790861,76.0267882 428,76.0267882 Z" id="Oval-8-copy-6" stroke="#F6A623" fill="#FFFFFF"></path>
                <path d="M428,36.0267882 C430.209139,36.0267882 432,34.2299305 432,32.0133941 C432,29.7968576 430.209139,28 428,28 C425.790861,28 424,29.7968576 424,32.0133941 C424,34.2299305 425.790861,36.0267882 428,36.0267882 Z" id="Oval-8-copy-6" stroke="#387FF6" fill="#FFFFFF"></path>
                <text id="$1.0M" font-family=".SFNSText-Regular, .SF NS Text" font-size="12" font-weight="normal" fill="#999999">
                    <tspan x="1" y="91">$1.0M</tspan>
                </text>
                <text id="$0M" font-family=".SFNSText-Regular, .SF NS Text" font-size="12" font-weight="normal" fill="#999999">
                    <tspan x="1" y="173">$0M</tspan>
                </text>
                <path d="M208.25,0.100753505 L208.25,175.844446" id="Line" stroke="#CCCCCC" stroke-width="0.2" stroke-linecap="square"></path>
                <path d="M94.25,0.100753505 L94.25,175.844446" id="Line" stroke="#CCCCCC" stroke-width="0.2" stroke-linecap="square"></path>
                <path d="M154.25,0.100753505 L154.25,175.844446" id="Line" stroke="#CCCCCC" stroke-width="0.2" stroke-linecap="square"></path>
                <path d="M378.25,0.100753505 L378.25,175.844446" id="Line" stroke="#CCCCCC" stroke-width="0.2" stroke-linecap="square"></path>
                <path d="M321.25,0.100753505 L321.25,175.844446" id="Line" stroke="#CCCCCC" stroke-width="0.2" stroke-linecap="square"></path>
                <path d="M264.25,0.100753505 L264.25,175.844446" id="Line" stroke="#CCCCCC" stroke-width="0.2" stroke-linecap="square"></path>
            </g>
        </g>
    </g>
</svg>