<?xml version="1.0" encoding="UTF-8" standalone="no"?>
<svg width="20px" height="17px" viewBox="0 0 20 17" version="1.1" xmlns="http://www.w3.org/2000/svg" xmlns:xlink="http://www.w3.org/1999/xlink">
    <!-- Generator: Sketch 39.1 (31720) - http://www.bohemiancoding.com/sketch -->
    <title>home87</title>
    <desc>Created with Sketch.</desc>
    <defs></defs>
    <g id="Page-1" stroke="none" stroke-width="1" fill="none" fill-rule="evenodd">
        <g id="02_Landing2" transform="translate(-541.000000, -299.000000)">
            <g id="home87" transform="translate(541.000000, 299.000000)">
                <g id="Layer_1">
                    <g id="Group">
                        <path d="M19.5428919,9.57205426 L9.9537037,0.0129457364 L0.364515516,9.57205426 C-0.121505172,10.0565504 -0.121505172,10.8414341 0.364515516,11.3259302 C0.850536205,11.8104264 1.63788972,11.8104264 2.12391041,11.3259302 L2.48842593,10.9625581 L2.48842593,15.4102326 L2.48842593,16.6666667 L3.73263889,16.6666667 L16.1747685,16.6666667 L17.4189815,16.6666667 L17.4189815,15.4102326 L17.4189815,10.9625581 L17.783497,11.3259302 C18.0265073,11.5681783 18.3448703,11.6893023 18.6631944,11.6893023 C18.9815186,11.6893023 19.2998815,11.5681783 19.5428919,11.3259302 C20.0289126,10.8414341 20.0289126,10.0565504 19.5428919,9.57205426 L19.5428919,9.57205426 Z M16.1747685,15.4263566 L8.70949074,15.4263566 L8.70949074,10.4651163 L6.22106481,10.4651163 L6.22106481,15.4263566 L3.73263889,15.4263566 L3.73263889,9.72224806 L9.9537037,3.52069767 L16.1747685,9.72224806 L16.1747685,15.4263566 L16.1747685,15.4263566 Z" id="Shape" fill="#666666"></path>
                        <rect id="Rectangle-path" fill="#000000" x="11.1979167" y="10.4651163" width="2.48842593" height="2.48062016"></rect>
                    </g>
                    <rect id="Rectangle-path" fill="#666666" x="11.1979167" y="10.4651163" width="2.48842593" height="2.48062016"></rect>
                    <polygon id="Shape" fill="#666666" points="6.22106481 1.98 6.22106481 0.542635659 3.73263889 0.542635659 3.73263889 4.46062016"></polygon>
                </g>
            </g>
        </g>
    </g>
</svg>