<?xml version="1.0" encoding="UTF-8" standalone="no"?>
<svg width="20px" height="18px" viewBox="0 0 20 18" version="1.1" xmlns="http://www.w3.org/2000/svg" xmlns:xlink="http://www.w3.org/1999/xlink">
    <!-- Generator: Sketch 39.1 (31720) - http://www.bohemiancoding.com/sketch -->
    <title>livingroom-rocking-chair</title>
    <desc>Created with Sketch.</desc>
    <defs></defs>
    <g id="Page-1" stroke="none" stroke-width="1" fill="none" fill-rule="evenodd">
        <g id="02_Landing2" transform="translate(-542.000000, -360.000000)" fill="#666666">
            <g id="livingroom-rocking-chair" transform="translate(542.000000, 360.000000)">
                <g id="Capa_1">
                    <g id="Group">
                        <path d="M6.3886,7.50967241 L11.41848,8.35602874 C11.70536,8.39448851 11.954,8.22137931 12.01136,7.93285057 L12.03052,7.79820115 C12.06876,7.50967241 11.8966,7.25964368 11.60972,7.20191379 L6.57984,6.35555747 C6.29296,6.3170977 6.04436,6.50943678 5.98696,6.79796552 L5.96784,6.93261494 C5.9296,7.20191379 6.12084,7.45198276 6.3886,7.50967241 L6.3886,7.50967241 Z" id="Shape"></path>
                        <path d="M19.0876,13.876454 C17.11772,15.0882586 15.2626,15.7806954 13.56048,16.1076839 L14.11508,11.4336149 L14.32548,9.6062931 L14.32548,9.6062931 C15.60684,2.47011494 17.003,1.77767816 17.15596,1.71994828 C17.17512,1.71994828 17.2516,1.68148851 17.30896,1.75844828 L17.28984,1.73917816 L18.55208,0.585063218 C18.2652,0.277304598 17.5576,-0.184333333 16.69696,0.0849655172 C15.60684,0.411954023 14.00032,1.73917816 12.68072,9.35622414 L7.99508,8.56755747 L6.84756,8.37521839 L6.13996,8.24056897 L5.96784,8.2021092 L4.36132,14.2418621 C2.33408,12.9146782 1.18656,11.4143448 1.07184,11.2796954 C0.8806,11.0296264 0.5172,10.9719368 0.26856,11.1642759 C0.01996,11.3566149 -0.03744,11.7221034 0.1538,11.9721322 C1.24392,13.4340057 3.59628,15.5305862 6.59892,16.6270115 C8.12892,17.1847989 9.67808,17.4733276 11.24632,17.4733276 C14.01944,17.4733276 16.84996,16.5885115 19.69956,14.8381494 C19.96732,14.665 20.06296,14.3188218 19.8908,14.0494828 C19.71872,13.7994943 19.37448,13.7225747 19.0876,13.876454 L19.0876,13.876454 Z M11.495,16.3577126 C9.48688,16.4154425 7.70824,15.9538046 6.23564,15.2997874 L7.49788,10.4333391 L12.107,11.2027356 L11.495,16.3577126 L11.495,16.3577126 Z" id="Shape"></path>
                    </g>
                </g>
            </g>
        </g>
    </g>
</svg>