<?xml version="1.0" encoding="UTF-8" standalone="no"?>
<svg width="30px" height="30px" viewBox="0 0 30 30" version="1.1" xmlns="http://www.w3.org/2000/svg" xmlns:xlink="http://www.w3.org/1999/xlink">
    <!-- Generator: Sketch 39.1 (31720) - http://www.bohemiancoding.com/sketch -->
    <title>Group 8</title>
    <desc>Created with Sketch.</desc>
    <defs></defs>
    <g id="Page-1" stroke="none" stroke-width="1" fill="none" fill-rule="evenodd">
        <g id="06_MyGoal7" transform="translate(-876.000000, -692.000000)">
            <g id="Group-8" transform="translate(876.000000, 692.000000)">
                <circle id="Oval-108" fill="#D8D8D8" cx="15" cy="15" r="15"></circle>
                <g id="mail" transform="translate(8.000000, 10.000000)" fill="#333333">
                    <g id="Layer_1">
                        <path d="M12.4444444,0 L1.55555556,0 C0.696888889,0 0,0.696888889 0,1.55555556 L0,8.55555556 C0,9.41422222 0.696888889,10.1111111 1.55555556,10.1111111 L12.4444444,10.1111111 C13.3031111,10.1111111 14,9.41422222 14,8.55555556 L14,1.55555556 C14,0.696888889 13.3031111,0 12.4444444,0 L12.4444444,0 Z M4.91244444,5.69022222 L6.15844444,6.77911111 C6.39566667,6.986 6.69588889,7.08866667 7,7.08866667 C7.30411111,7.08866667 7.60433333,6.98522222 7.84155556,6.77911111 L9.08755556,5.69022222 L9.05877778,5.719 L11.8945556,8.55477778 L2.10544444,8.55477778 L4.94122222,5.719 L4.91244444,5.69022222 L4.91244444,5.69022222 Z M1.55555556,8.00566667 L1.55555556,2.75333333 L4.35711111,5.20411111 L1.55555556,8.00566667 L1.55555556,8.00566667 Z M9.64288889,5.20411111 L12.4444444,2.75333333 L12.4444444,8.00333333 L9.64288889,5.20411111 L9.64288889,5.20411111 Z M12.4444444,1.55555556 L12.4444444,1.71888889 L7.32977778,6.19422222 C7.15322222,6.34822222 6.84677778,6.34822222 6.67022222,6.19422222 L1.55555556,1.71888889 L1.55555556,1.55555556 L12.4444444,1.55555556 L12.4444444,1.55555556 Z" id="Shape"></path>
                    </g>
                </g>
            </g>
        </g>
    </g>
</svg>