<?xml version="1.0" encoding="UTF-8" standalone="no"?>
<svg width="30px" height="30px" viewBox="0 0 30 30" version="1.1" xmlns="http://www.w3.org/2000/svg" xmlns:xlink="http://www.w3.org/1999/xlink">
    <!-- Generator: Sketch 39.1 (31720) - http://www.bohemiancoding.com/sketch -->
    <title>Group 7</title>
    <desc>Created with Sketch.</desc>
    <defs></defs>
    <g id="Page-1" stroke="none" stroke-width="1" fill="none" fill-rule="evenodd">
        <g id="06_MyGoal7" transform="translate(-836.000000, -692.000000)">
            <g id="Group-7" transform="translate(836.000000, 692.000000)">
                <circle id="Oval-108" fill="#D8D8D8" cx="15" cy="15" r="15"></circle>
                <g id="call26" transform="translate(15.000000, 15.000000) scale(-1, 1) translate(-15.000000, -15.000000) translate(8.000000, 8.000000)" fill="#333333">
                    <g id="Capa_1">
                        <path d="M10.9721975,0.0198765432 C9.30083951,0.0198765432 7.94577778,1.37493827 7.94577778,3.0462963 C7.94577778,4.58491358 9.09498765,5.85251852 10.5814074,6.04471605 C10.5670617,6.06839506 10.5515062,6.09397531 10.5343951,6.12162963 C10.466642,6.23138272 10.4298272,6.29239506 10.4230864,6.30535802 C9.9334321,7.18804938 9.37308642,7.94491358 8.74153086,8.5762963 C8.11014815,9.20785185 7.35311111,9.76819753 6.47041975,10.2578519 C6.45762963,10.2642469 6.3962716,10.3012346 6.2868642,10.3689877 C6.18264198,10.433284 6.10849383,10.4766667 6.06269136,10.5003457 C6.03140741,8.85595062 4.69103704,7.53182716 3.03903704,7.53182716 C1.36750617,7.53182716 0.0124444444,8.88688889 0.0124444444,10.5582469 C0.0124444444,11.8408889 0.81182716,12.9344444 1.93822222,13.3750123 C2.5208642,13.6795556 3.09745679,13.8333827 3.66817284,13.8333827 C3.84204938,13.8333827 4.01108642,13.822321 4.17545679,13.799679 C4.33982716,13.7772099 4.52493827,13.7367654 4.73130864,13.6788642 C4.93767901,13.620963 5.0902963,13.5741235 5.19019753,13.5386914 C5.29009877,13.5034321 5.46898765,13.4374074 5.72651852,13.3406173 C5.98439506,13.244 6.14219753,13.1860988 6.19992593,13.1665679 C6.83148148,12.9411852 7.39511111,12.6738025 7.89116049,12.3645926 C8.71595062,11.8557531 9.56787654,11.161284 10.447284,10.2818765 C11.3266914,9.40246914 12.0208148,8.55054321 12.53,7.72592593 C12.8392099,7.22987654 13.1065926,6.66607407 13.3319753,6.03469136 C13.3513333,5.97661728 13.4092346,5.81881481 13.5058519,5.56111111 C13.6028148,5.30340741 13.6688395,5.12469136 13.7040988,5.02461728 C13.7395309,4.92471605 13.7861975,4.77192593 13.8442716,4.56555556 C13.9021728,4.35935802 13.9424444,4.17424691 13.9650864,4.00987654 C13.9877284,3.84567901 13.9987901,3.67646914 13.9987901,3.50259259 C13.9987901,3.41962963 13.9948148,3.33649383 13.9880741,3.25335802 C13.9927407,3.1845679 13.9987901,3.11595062 13.9987901,3.04612346 C13.9987901,1.37493827 12.6437284,0.0198765432 10.9721975,0.0198765432 L10.9721975,0.0198765432 Z" id="Shape"></path>
                    </g>
                </g>
            </g>
        </g>
    </g>
</svg>