<?xml version="1.0" encoding="UTF-8" standalone="no"?>
<svg width="18px" height="17px" viewBox="0 0 18 17" version="1.1" xmlns="http://www.w3.org/2000/svg" xmlns:xlink="http://www.w3.org/1999/xlink">
    <!-- Generator: Sketch 39.1 (31720) - http://www.bohemiancoding.com/sketch -->
    <title>piggy3</title>
    <desc>Created with Sketch.</desc>
    <defs></defs>
    <g id="Page-1" stroke="none" stroke-width="1" fill="none" fill-rule="evenodd">
        <g id="02_Landing2" transform="translate(-543.000000, -181.000000)" fill="#666666">
            <g id="piggy3" transform="translate(543.000000, 181.000000)">
                <g id="Layer_1">
                    <g id="Group">
                        <path d="M6.7038,5.4102 C6.309,5.3418 6.0252,5.1726 5.868,4.8906 C5.7648,4.71 5.7144,4.4658 5.7144,4.1586 L6.189,4.1586 C6.2034,4.4034 6.243,4.5822 6.3042,4.695 C6.417,4.8972 6.6234,5.0106 6.9264,5.0358 L6.9264,3.573 C6.5382,3.4998 6.2514,3.3774 6.0654,3.2058 C5.88,3.0336 5.7876,2.796 5.7876,2.4918 C5.7876,2.22 5.8872,1.9752 6.0864,1.7562 C6.2868,1.5384 6.5658,1.4274 6.9252,1.4238 L6.9252,1.0674 L7.1796,1.0674 L7.1796,1.4184 C7.536,1.4436 7.809,1.548 7.9992,1.7328 C8.1894,1.9176 8.289,2.1612 8.2986,2.4648 L7.83,2.4648 C7.818,2.3292 7.7808,2.2122 7.7196,2.1138 C7.6068,1.9332 7.428,1.8384 7.1808,1.8294 L7.1808,3.1362 C7.5954,3.2526 7.8774,3.3618 8.0256,3.4632 C8.268,3.6312 8.388,3.8802 8.388,4.209 C8.388,4.6848 8.2332,5.0226 7.9242,5.223 C7.7976,5.3052 7.6134,5.3598 7.4028,5.4006 C8.0202,5.4216 8.6346,5.5212 9.2274,5.7 C9.789,5.1414 10.1358,4.3686 10.1358,3.5154 C10.1358,1.812 8.7546,0.4314 7.0512,0.4314 C5.3484,0.4314 3.9678,1.812 3.9678,3.5154 C3.9678,4.395 4.338,5.187 4.929,5.7486 C5.5038,5.5602 6.1014,5.4474 6.7038,5.4102 L6.7038,5.4102 Z" id="Shape"></path>
                        <path d="M6.9276,3.0852 L6.9276,1.824 C6.6906,1.8336 6.5226,1.9044 6.423,2.0382 C6.3228,2.1726 6.2724,2.313 6.2724,2.46 C6.2724,2.637 6.3324,2.7756 6.4494,2.8758 C6.5676,2.976 6.7272,3.0456 6.9276,3.0852 Z" id="Shape"></path>
                        <path d="M7.9062,4.3404 C7.9062,4.1166 7.824,3.9468 7.6602,3.8304 C7.5654,3.7626 7.4058,3.6984 7.182,3.6378 L7.182,5.049 C7.488,5.0346 7.6986,4.923 7.8162,4.7136 C7.8762,4.6062 7.9062,4.4814 7.9062,4.3404 L7.9062,4.3404 Z" id="Shape"></path>
                        <path d="M17.6256,11.6142 C18.0024,11.2224 18.0372,10.4934 17.9748,9.5196 C17.532,9.4896 16.8792,9.5634 16.6482,9.5196 C16.0878,8.4042 15.282,7.5336 14.1348,7.0056 C14.1732,6.2772 14.2722,5.607 14.694,5.2602 C13.6692,5.19 12.8034,5.8824 12.2502,6.5172 C11.7546,6.0018 11.0196,5.592 10.1562,5.3034 L9.6186,6.2598 C8.0202,5.709 6.2646,5.7144 4.6752,6.2766 L3.9738,5.334 C3.972,5.331 3.969,5.3286 3.9666,5.3262 C2.8704,5.6892 1.8606,6.258 1.0776,7.0764 C0.567,7.0374 0.6258,6.0024 1.2882,6.1686 C0.21,5.4342 -0.384,7.4472 0.6588,7.7046 C-0.2106,8.946 -0.2928,11.6136 0.8688,12.5922 C1.0386,14.0628 1.299,15.4434 2.0136,16.3686 L4.3608,16.3686 C4.2984,15.8922 4.2366,15.3834 4.2906,14.8272 C5.7156,15.1506 7.4088,15.2454 9.108,15.1068 C9.3708,15.5424 9.624,15.9852 9.9378,16.3692 L12.2604,16.3692 C12.1752,15.7542 12.0834,15.1092 12.2502,14.4786 C12.8046,14.3706 15.6828,13.6392 17.6256,11.6142 L17.6256,11.6142 Z M14.4192,8.4984 C14.7378,8.4984 14.997,8.757 14.997,9.0756 C14.997,9.3942 14.7378,9.6528 14.4192,9.6528 C14.1012,9.6528 13.8426,9.3942 13.8426,9.0756 C13.8426,8.757 14.1012,8.4984 14.4192,8.4984 L14.4192,8.4984 Z" id="Shape"></path>
                    </g>
                </g>
            </g>
        </g>
    </g>
</svg>