<?xml version="1.0" encoding="UTF-8" standalone="no"?>
<svg width="16px" height="16px" viewBox="0 0 16 16" version="1.1" xmlns="http://www.w3.org/2000/svg" xmlns:xlink="http://www.w3.org/1999/xlink">
    <!-- Generator: Sketch 39.1 (31720) - http://www.bohemiancoding.com/sketch -->
    <title>paperplane</title>
    <desc>Created with Sketch.</desc>
    <defs></defs>
    <g id="Page-1" stroke="none" stroke-width="1" fill="none" fill-rule="evenodd">
        <g id="MyGoal_Chat" transform="translate(-973.000000, -712.000000)" fill="#094C73">
            <g id="paperplane" transform="translate(973.000000, 712.000000)">
                <g id="Layer_1">
                    <path d="M15.2935758,0.0775757576 C15.2130909,0.0256969697 15.1214545,0 15.030303,0 C14.9367273,0 14.8426667,0.0266666667 14.7612121,0.0814545455 L0.215757576,9.77842424 C0.0659393939,9.87781818 -0.0164848485,10.0528485 0.00290909091,10.2322424 C0.0213333333,10.4111515 0.13769697,10.5658182 0.304969697,10.6317576 L4.09842424,12.1498182 L5.88218182,15.2712727 C5.96751515,15.4210909 6.12606061,15.513697 6.29769697,15.5156364 L6.3030303,15.5156364 C6.47321212,15.5156364 6.63127273,15.4254545 6.71854545,15.28 L7.72557576,13.6009697 L12.4261818,15.4807273 C12.4838788,15.504 12.5444848,15.5151515 12.6060606,15.5151515 C12.6884848,15.5151515 12.7699394,15.494303 12.8436364,15.4526061 C12.9716364,15.3808485 13.0593939,15.2547879 13.0841212,15.1098182 L15.5083636,0.564363636 C15.5398788,0.373818182 15.4555152,0.182787879 15.2935758,0.0775757576 L15.2935758,0.0775757576 Z M1.52048485,10.073697 L12.7568485,2.58230303 L4.58715152,11.3275152 C4.544,11.3018182 4.50569697,11.2678788 4.45818182,11.2489697 L1.52048485,10.073697 L1.52048485,10.073697 Z M4.94012121,11.6683636 C4.93915152,11.6664242 4.93769697,11.6654545 4.93672727,11.6635152 L14.1212121,1.83321212 L6.29139394,14.0329697 L4.94012121,11.6683636 L4.94012121,11.6683636 Z M12.2264242,14.3558788 L8.08533333,12.6996364 C7.98690909,12.6608485 7.88460606,12.6477576 7.78327273,12.6419394 L14.16,2.75684848 L12.2264242,14.3558788 L12.2264242,14.3558788 Z" id="paperplane"></path>
                </g>
            </g>
        </g>
    </g>
</svg>