<?xml version="1.0" encoding="UTF-8" standalone="no"?>
<svg width="12px" height="14px" viewBox="0 0 12 14" version="1.1" xmlns="http://www.w3.org/2000/svg" xmlns:xlink="http://www.w3.org/1999/xlink">
    <!-- Generator: Sketch 39.1 (31720) - http://www.bohemiancoding.com/sketch -->
    <title>user44</title>
    <desc>Created with Sketch.</desc>
    <defs></defs>
    <g id="Page-1" stroke="none" stroke-width="1" fill="none" fill-rule="evenodd">
        <g id="Login" transform="translate(-370.000000, -296.000000)" fill="#EA6A2A">
            <g id="user44" transform="translate(370.000000, 296.000000)">
                <g id="Capa_1">
                    <path d="M11.6347,13.8166 L10.2347,13.8166 C10.2347,11.4548 8.2537,9.534 5.817,9.534 C3.3803,9.534 1.4,11.4555 1.4,13.8166 L0,13.8166 C0,10.682 2.6103,8.134 5.8177,8.134 C9.0251,8.134 11.6347,10.682 11.6347,13.8166 L11.6347,13.8166 Z" id="Shape"></path>
                    <path d="M5.8177,7.679 C3.7016,7.679 1.9789,5.9556 1.9789,3.8395 C1.9789,1.7227 3.7009,0 5.8177,0 C7.9352,0 9.6579,1.722 9.6579,3.8395 C9.6579,5.957 7.9352,7.679 5.8177,7.679 L5.8177,7.679 Z M5.8177,1.4 C4.4723,1.4 3.3782,2.4941 3.3782,3.8395 C3.3782,5.1849 4.4723,6.279 5.8177,6.279 C7.1638,6.279 8.2579,5.1849 8.2579,3.8395 C8.2579,2.4941 7.1624,1.4 5.8177,1.4 L5.8177,1.4 Z" id="Shape"></path>
                </g>
            </g>
        </g>
    </g>
</svg>